<svg width="800" height="800" viewBox="0 0 800 800" fill="none" xmlns="http://www.w3.org/2000/svg">
<rect width="800" height="800" fill="black"/>
<path d="M600 400L400 400L400 500C400 555.228 444.772 600 500 600C555.228 600 600 555.228 600 500L600 400Z" fill="#FF3737"/>
<path d="M500 400C555.228 400 600 355.228 600 300C600 244.772 555.228 200 500 200C444.772 200 400 244.772 400 300C400 355.228 444.772 400 500 400Z" fill="#00B6FF"/>
<path d="M300 600C355.228 600 400 555.228 400 500C400 444.772 355.228 400 300 400C244.772 400 200 444.772 200 500C200 555.228 244.772 600 300 600Z" fill="#874FFF"/>
<path d="M300 400C355.228 400 400 355.228 400 300L400 200L200 200L200 300C200 355.228 244.772 400 300 400Z" fill="#24CB71"/>
</svg>
