<svg width="128" height="128" viewBox="0 0 128 128" fill="none" xmlns="http://www.w3.org/2000/svg">
<g clip-path="url(#clip0_14_8)">
<circle cx="64" cy="64" r="64" fill="black"/>
<path d="M96 64L64 64L64 80C64 88.8365 71.1635 96 80 96C88.8365 96 96 88.8365 96 80L96 64Z" fill="#FF3737"/>
<path d="M80 64C88.8366 64 96 56.8366 96 48C96 39.1634 88.8366 32 80 32C71.1634 32 64 39.1634 64 48C64 56.8366 71.1634 64 80 64Z" fill="#00B6FF"/>
<path d="M48 96C56.8366 96 64 88.8366 64 80C64 71.1634 56.8366 64 48 64C39.1634 64 32 71.1634 32 80C32 88.8366 39.1634 96 48 96Z" fill="#874FFF"/>
<path d="M48 64C56.8365 64 64 56.8365 64 48L64 32L32 32L32 48C32 56.8365 39.1635 64 48 64Z" fill="#24CB71"/>
</g>
<defs>
<clipPath id="clip0_14_8">
<rect width="128" height="128" fill="white"/>
</clipPath>
</defs>
</svg>
