<svg width="24" height="24" viewBox="0 0 24 24" fill="none" xmlns="http://www.w3.org/2000/svg">
  <path d="M17.2929 5.29302C17.6834 4.90249 18.3164 4.90249 18.707 5.29302C19.0975 5.68354 19.0975 6.31655 18.707 6.70708L13.414 12L18.707 17.293C19.0975 17.6835 19.0975 18.3166 18.707 18.7071C18.3164 19.0976 17.6834 19.0976 17.2929 18.7071L11.9999 13.4141L6.70696 18.7071C6.31643 19.0976 5.68342 19.0976 5.29289 18.7071C4.90237 18.3166 4.90237 17.6835 5.29289 17.293L10.5859 12L5.29289 6.70708C4.90237 6.31655 4.90237 5.68354 5.29289 5.29302C5.68342 4.90249 6.31643 4.90249 6.70696 5.29302L11.9999 10.586L17.2929 5.29302Z" fill="currentColor"/>
</svg>
